<svg width="70" height="72" viewBox="0 0 70 72" fill="none" xmlns="http://www.w3.org/2000/svg">
<path d="M15.8215 17.1678C15.8215 16.0547 16.7304 15.1523 17.8516 15.1523H62.3105C63.4317 15.1523 64.3406 16.0547 64.3406 17.1678V44.7797C64.3406 45.8928 63.4317 46.7952 62.3105 46.7952H17.8516C16.7304 46.7952 15.8215 45.8928 15.8215 44.7797V17.1678Z" fill="#5F259F"/>
<path d="M63.7562 21.6597C62.4835 19.3271 54.0132 14.9305 49.3572 15.8307L49.8597 7.50224L54.699 11.8804L60.6825 7.25069L61.5646 14.304L66.5905 13.8192C65.7123 16.9643 65.2037 17.9816 63.7562 21.6597Z" fill="#FAC600"/>
<path fill-rule="evenodd" clip-rule="evenodd" d="M63.6084 0.366154C64.0328 0.49384 64.2733 0.941368 64.1456 1.36574L62.9427 5.36343C62.8151 5.7878 62.3675 6.0283 61.9432 5.90062C61.5188 5.77293 61.2783 5.3254 61.406 4.90104L62.6088 0.903344C62.7365 0.478976 63.184 0.238468 63.6084 0.366154Z" fill="#5F259F"/>
<path fill-rule="evenodd" clip-rule="evenodd" d="M56.1414 1.49988C56.5324 1.29128 57.0184 1.43915 57.227 1.83015L58.7382 4.66266C58.9467 5.05366 58.7989 5.53973 58.4079 5.74832C58.0169 5.95692 57.5308 5.80905 57.3222 5.41805L55.8111 2.58554C55.6025 2.19454 55.7504 1.70847 56.1414 1.49988Z" fill="#5F259F"/>
<path fill-rule="evenodd" clip-rule="evenodd" d="M69.4796 7.1855C69.5797 7.61719 69.311 8.04835 68.8793 8.14852L64.424 9.18227C63.9923 9.28244 63.5612 9.01368 63.461 8.58199C63.3608 8.1503 63.6296 7.71914 64.0613 7.61897L68.5165 6.58522C68.9482 6.48505 69.3794 6.75381 69.4796 7.1855Z" fill="#5F259F"/>
<path fill-rule="evenodd" clip-rule="evenodd" d="M58.0119 27.6149C58.0119 26.497 57.1133 25.5908 56.0048 25.5908H2.0071C0.898609 25.5908 0 26.497 0 27.6149V62.1073C0 63.2252 0.89861 64.1314 2.0071 64.1314H30.3763C31.0461 64.1314 31.6718 64.4683 32.0443 65.0296L36.0744 71.1019C36.6909 72.0308 37.9375 72.2799 38.8587 71.6581L49.5037 64.4734C49.834 64.2504 50.2226 64.1314 50.6201 64.1314H56.0048C57.1133 64.1314 58.0119 63.2252 58.0119 62.1073V27.6149Z" fill="url(#paint0_linear)"/>
<path d="M28.5915 35.7636C27.8802 35.6458 27.1938 35.6235 26.5322 35.6966C25.8705 35.7697 25.1217 35.9401 24.2858 36.2076L23.5957 32.6528C24.4479 32.2865 25.4189 32.0616 26.5085 31.9782C27.6014 31.8749 28.6516 31.9068 29.6592 32.0736C30.9236 32.283 31.933 32.6227 32.6874 33.0926C33.4616 33.5659 34.0432 34.0986 34.4323 34.6908C34.8214 35.283 35.0541 35.9 35.1305 36.5419C35.2267 37.1871 35.2289 37.7862 35.1373 38.3394C35.0457 38.8926 34.8718 39.3915 34.6155 39.8362C34.3822 40.2645 34.1044 40.6549 33.7821 41.0075C33.4599 41.3601 33.1014 41.6864 32.7066 41.9864C32.3119 42.2864 31.9303 42.5683 31.5618 42.832C31.2855 43.0298 30.996 43.2458 30.6934 43.4798C30.394 43.6941 30.1112 43.9315 29.8448 44.1918C29.5981 44.4555 29.3779 44.7438 29.1839 45.0567C28.9933 45.3499 28.8702 45.6644 28.8146 46.0003C28.8015 46.0793 28.7819 46.1979 28.7557 46.3559C28.7295 46.514 28.7165 46.6539 28.7166 46.7757L24.8049 46.128C24.7981 45.9239 24.8044 45.7016 24.8239 45.4613C24.8664 45.2045 24.9024 44.9871 24.9319 44.8093C25.0235 44.2562 25.1744 43.7737 25.3847 43.362C25.5982 42.9305 25.8447 42.545 26.1242 42.2056C26.4267 41.8498 26.7539 41.5284 27.1059 41.2416C27.4578 40.9549 27.818 40.6796 28.1865 40.4158C28.7161 40.0367 29.2046 39.6609 29.652 39.2884C30.1026 38.8961 30.3753 38.4135 30.4702 37.8406C30.5487 37.3665 30.4281 36.9304 30.1083 36.5324C29.8083 36.1376 29.3027 35.8814 28.5915 35.7636ZM28.8792 51.1261C28.7353 51.9954 28.3376 52.6197 27.6861 52.999C27.0544 53.3815 26.383 53.5139 25.6717 53.3961C24.9605 53.2784 24.3577 52.935 23.8633 52.3659C23.3886 51.8002 23.2232 51.0827 23.3672 50.2134C23.5111 49.3441 23.8989 48.7182 24.5306 48.3357C25.1821 47.9564 25.8634 47.8256 26.5747 47.9434C27.2859 48.0612 27.8788 48.4029 28.3535 48.9687C28.8479 49.5377 29.0232 50.2568 28.8792 51.1261Z" fill="#5F259F"/>
<path d="M29.8543 34.3562C29.1412 34.2507 28.4545 34.2403 27.7942 34.3248C27.1339 34.4094 26.3882 34.5927 25.557 34.8746L24.8055 31.3323C25.6513 30.9513 26.6182 30.7096 27.7062 30.6073C28.7971 30.4853 29.8478 30.4989 30.8581 30.6483C32.1259 30.8358 33.141 31.1579 33.9034 31.6148C34.6857 32.0746 35.2764 32.5972 35.6757 33.1825C36.075 33.7679 36.3184 34.3808 36.4058 35.0213C36.5131 35.6647 36.5258 36.2637 36.4438 36.8184C36.3617 37.3731 36.1964 37.875 35.9479 38.324C35.722 38.7562 35.451 39.1514 35.1349 39.5095C34.8188 39.8676 34.466 40.2001 34.0765 40.5069C33.687 40.8137 33.3103 41.1021 32.9465 41.3722C32.6736 41.5748 32.3879 41.7957 32.0894 42.0349C31.7938 42.2544 31.5151 42.4966 31.2532 42.7615C31.0112 43.0294 30.7959 43.3214 30.6074 43.6377C30.4219 43.9341 30.3042 44.2507 30.2544 44.5875C30.2427 44.6668 30.2252 44.7856 30.2017 44.9441C30.1783 45.1026 30.1677 45.2427 30.1699 45.3645L26.2475 44.7845C26.2372 44.5806 26.2397 44.3583 26.2551 44.1176C26.2931 43.8601 26.3254 43.6422 26.3517 43.4639C26.4337 42.9092 26.5763 42.4242 26.7794 42.0089C26.9855 41.5738 27.2253 41.1841 27.4988 40.8399C27.7951 40.4789 28.1168 40.152 28.4637 39.8591C28.8107 39.5663 29.166 39.2848 29.5299 39.0147C30.0529 38.6265 30.5348 38.2423 30.9756 37.8621C31.4194 37.4621 31.6837 36.9749 31.7687 36.4004C31.839 35.925 31.7108 35.491 31.3842 35.0986C31.0775 34.7091 30.5675 34.4616 29.8543 34.3562ZM30.4077 49.7114C30.2788 50.5831 29.892 51.2142 29.2472 51.6046C28.6222 51.9981 27.9532 52.1421 27.24 52.0366C26.5269 51.9311 25.9182 51.5982 25.414 51.0378C24.9296 50.4804 24.7519 49.7658 24.8807 48.8942C25.0096 48.0226 25.3866 47.39 26.0115 46.9966C26.6563 46.6061 27.3353 46.4636 28.0485 46.569C28.7616 46.6745 29.3604 47.006 29.8448 47.5634C30.349 48.1238 30.5366 48.8398 30.4077 49.7114Z" fill="url(#paint1_linear)"/>
<defs>
<linearGradient id="paint0_linear" x1="0" y1="25.5908" x2="62.279" y2="65.3095" gradientUnits="userSpaceOnUse">
<stop stop-color="#5F259F"/>
<stop offset="1" stop-color="#B58AE4"/>
</linearGradient>
<linearGradient id="paint1_linear" x1="27.0729" y1="31.9803" x2="40.7442" y2="39.305" gradientUnits="userSpaceOnUse">
<stop offset="0.255208" stop-color="#F0EFF5"/>
<stop offset="1" stop-color="white" stop-opacity="0"/>
</linearGradient>
</defs>
</svg>
