<svg width="36" height="36" viewBox="0 0 36 36" fill="none" xmlns="http://www.w3.org/2000/svg">
<path d="M18.0755 0C8.19522 0 0.154452 8.0028 0.150968 17.838C0.148645 20.9832 0.975484 24.0528 2.54323 26.7564L0 36L9.50284 33.5196C12.1462 34.9484 15.0854 35.6937 18.0685 35.6916H18.0755C27.9557 35.6916 35.9965 27.6876 36 17.8524C36.0023 13.0884 34.1396 8.604 30.7544 5.2332C27.3705 1.8612 22.8705 0.0012 18.0755 0ZM18.0755 32.6784H18.0697C15.3964 32.6784 12.7742 31.9632 10.4865 30.612L9.94065 30.2904L4.30374 31.7616L5.80877 26.2896L5.45458 25.7292C3.96686 23.3846 3.17489 20.6417 3.17613 17.838C3.17961 9.6624 9.864 3.0132 18.0813 3.0132C22.0599 3.0144 25.8004 4.5588 28.6142 7.3608C31.428 10.1628 32.976 13.8888 32.9737 17.8512C32.9702 26.0268 26.287 32.6784 18.0743 32.6784H18.0755ZM26.2475 21.5724C25.7992 21.3504 23.5974 20.2716 23.1863 20.1216C22.7764 19.974 22.4779 19.8972 22.1795 20.3436C21.8822 20.79 21.0228 21.7944 20.7627 22.0908C20.5003 22.3884 20.239 22.4244 19.7907 22.2024C19.3425 21.9792 17.899 21.5088 16.1895 19.9896C14.8575 18.8088 13.9587 17.3496 13.6974 16.902C13.4361 16.4568 13.6695 16.2156 13.8937 15.9936C14.0946 15.7956 14.3419 15.474 14.5649 15.2136C14.7879 14.9532 14.8622 14.7672 15.0132 14.4696C15.1618 14.1732 15.0875 13.9116 14.9748 13.6896C14.8622 13.4652 13.968 11.2716 13.5929 10.38C13.2306 9.5112 12.8613 9.6276 12.5861 9.6132C12.3248 9.6012 12.0275 9.5976 11.7267 9.5976C11.4306 9.5976 10.944 9.7092 10.5329 10.1556C10.123 10.602 8.96516 11.6796 8.96516 13.8732C8.96516 16.068 10.5701 18.1872 10.7942 18.4848C11.0183 18.7812 13.9529 23.2848 18.4459 25.2168C19.5143 25.674 20.3481 25.9488 20.9996 26.1552C22.0726 26.4948 23.0493 26.4456 23.8204 26.3316C24.6797 26.2032 26.4705 25.254 26.8421 24.2136C27.216 23.1732 27.216 22.2804 27.1045 22.0944C26.9954 21.9084 26.6957 21.7968 26.2475 21.5724Z" fill="white"/>
</svg>
